# xmcd CD database file
#
# Track frame offsets:
#	150
#	13780
#	29265
#	43202
#	59142
#	75082
#	91220
#	105517
#	121220
#	136530
#
# Disc length: 2123 seconds
#
# Revision: 2
# Processed by: cddbd v1.5.2PL0 Copyright (c) Steve Scherf et al.
# Submitted via: CDex 1.51
#
DISCID=7308490a
DTITLE=The Dixie Chicks - Shouldn't a Told You That
DYEAR=1993
DGENRE=Country
TTITLE0=Whistles and Bells
TTITLE1=I'm Falling Again
TTITLE2=Shouldn't a Told You That
TTITLE3=Desire
TTITLE4=There Goes My Dream
TTITLE5=One Heart Away
TTITLE6=The Thrill is in the Chase
TTITLE7=I Wasn't Looking For You
TTITLE8=I've Only Got Myself to Blame
TTITLE9=Planet of Love
EXTD=YEAR: 1993
EXTT0=
EXTT1=
EXTT2=
EXTT3=
EXTT4=
EXTT5=
EXTT6=
EXTT7=
EXTT8=
EXTT9=
PLAYORDER=
